<?xml version="1.0" encoding="utf-8"?>
<!-- Generator: Adobe Illustrator 24.0.1, SVG Export Plug-In . SVG Version: 6.00 Build 0)  -->
<svg version="1.1" id="Layer_1" xmlns="http://www.w3.org/2000/svg" xmlns:xlink="http://www.w3.org/1999/xlink" x="0px" y="0px"
	 viewBox="0 0 245.49 245.49" style="enable-background:new 0 0 245.49 245.49;" xml:space="preserve">
<style type="text/css">
	.st0{fill:#118B4E;}
	.st1{fill:#FFFFFF;}
</style>
<g>
	<circle class="st0" cx="122.74" cy="122.74" r="105.21"/>
	<path class="st1" d="M122.74,18.58c57.53,0,104.16,46.63,104.16,104.16S180.27,226.9,122.74,226.9S18.58,180.27,18.58,122.74
		S65.22,18.58,122.74,18.58 M122.74,10.66c-29.94,0-58.08,11.66-79.25,32.83S10.66,92.8,10.66,122.74s11.66,58.08,32.83,79.25
		s49.31,32.83,79.25,32.83s58.08-11.66,79.25-32.83s32.83-49.31,32.83-79.25s-11.66-58.08-32.83-79.25S152.68,10.66,122.74,10.66
		L122.74,10.66z"/>
</g>
<path d="M122.74,9c30.38,0,58.95,11.83,80.43,33.31s33.31,50.05,33.31,80.43s-11.83,58.95-33.31,80.43s-50.05,33.31-80.43,33.31
	s-58.95-11.83-80.43-33.31S9,153.12,9,122.74S20.83,63.8,42.31,42.31C63.8,20.83,92.36,9,122.74,9 M122.74,0
	C54.95,0,0,54.95,0,122.74s54.95,122.74,122.74,122.74s122.74-54.95,122.74-122.74S190.53,0,122.74,0L122.74,0z"/>
<path class="st1" d="M219,165.27V80.21c-8.9-20.11-23.92-36.91-42.7-48.04l-53.23,78.94L69.33,32.09
	C50.94,42.95,36.14,59.24,27.14,78.77v87.95c7.26,15.76,18.31,29.42,31.98,39.82V74.34l44.23,65.55l2.66,3.2l1.6,3.2l9.59,13.86
	l5.86,8.53l5.33-8.53l9.59-13.86l1.6-3.2l2.67-3.2l44.77-65.55v131.69C200.8,195.38,211.86,181.39,219,165.27z"/>
</svg>
