<svg xmlns="http://www.w3.org/2000/svg" width="38" height="46" viewBox="0 0 38 46">
    <path fill="#FFBF00" fill-rule="nonzero" d="M2.29 20.539v21.71a1.143 1.143 0 0 0 1.147 1.132h30.912c.641 0 1.147-.504 1.147-1.131V20.54a1.143 1.143 0 0 0-1.147-1.132H3.437c-.641 0-1.147.505-1.147 1.131zm-2.29 0c0-.908.362-1.779 1.007-2.42a3.429 3.429 0 0 1 2.43-.995h30.912a3.43 3.43 0 0 1 3.437 3.415v21.71c0 .908-.362 1.779-1.007 2.42-.645.64-1.52.999-2.43.995H3.437A3.43 3.43 0 0 1 0 42.25V20.539zM9.16 9.704c0-4.091 3.337-7.42 7.444-7.42h4.006c4.11 0 7.443 3.322 7.444 7.42v4.08s.317.784 1.218.784 1.072-.782 1.072-.782V9.704c0-5.36-4.362-9.704-9.735-9.704h-4.006C11.228 0 6.87 4.355 6.87 9.704v8.562l2.29-.438V9.704zm0 0c0-4.091 3.337-7.42 7.444-7.42h4.006c4.11 0 7.443 3.322 7.444 7.42v4.08h2.29v-4.08c0-5.36-4.362-9.704-9.735-9.704h-4.006C11.228 0 6.87 4.355 6.87 9.704v8.562l2.29-.438V9.704zm9.2 16.02v10.752c0 .63.513 1.142 1.145 1.142.633 0 1.145-.511 1.145-1.142V25.723c0-.63-.512-1.141-1.145-1.141-.632 0-1.145.51-1.145 1.141z"/>
</svg>
