<?xml version="1.0" encoding="UTF-8"?>
<svg width="13px" height="18px" viewBox="0 0 13 18" version="1.1" xmlns="http://www.w3.org/2000/svg" xmlns:xlink="http://www.w3.org/1999/xlink">
    <title>Elements/Icon/Bell</title>
    <g id="Mobile_Salon-Operator_v.06" stroke="none" stroke-width="1" fill="none" fill-rule="evenodd" fill-opacity="0.45">
        <g id="WA_S_1_8_1_ManageSchedule_v.05" transform="translate(-292.000000, -57.000000)" fill="#000000" fill-rule="nonzero">
            <g id="Shape" transform="translate(287.000000, 54.000000)">
                <path d="M17.3809524,17.2363636 L16.9166667,17.2363636 L16.9166667,10.2818182 C16.9166667,7.39568182 14.8989583,5.01068182 12.2738095,4.61386364 L12.2738095,3.81818182 C12.2738095,3.36613636 11.9275298,3 11.5,3 C11.0724702,3 10.7261905,3.36613636 10.7261905,3.81818182 L10.7261905,4.61386364 C8.10104167,5.01068182 6.08333333,7.39568182 6.08333333,10.2818182 L6.08333333,17.2363636 L5.61904762,17.2363636 C5.2766369,17.2363636 5,17.5288636 5,17.8909091 L5,18.5454545 C5,18.6354545 5.06964286,18.7090909 5.1547619,18.7090909 L9.33333333,18.7090909 C9.33333333,19.9731818 10.3044643,21 11.5,21 C12.6955357,21 13.6666667,19.9731818 13.6666667,18.7090909 L17.8452381,18.7090909 C17.9303571,18.7090909 18,18.6354545 18,18.5454545 L18,17.8909091 C18,17.5288636 17.7233631,17.2363636 17.3809524,17.2363636 Z M11.5,19.6909091 C10.9873512,19.6909091 10.5714286,19.2511364 10.5714286,18.7090909 L12.4285714,18.7090909 C12.4285714,19.2511364 12.0126488,19.6909091 11.5,19.6909091 Z M7.47619048,17.2363636 L7.47619048,10.2818182 C7.47619048,9.14454545 7.89404762,8.07681818 8.65431548,7.27295455 C9.41458333,6.46909091 10.4244048,6.02727273 11.5,6.02727273 C12.5755952,6.02727273 13.5854167,6.46909091 14.3456845,7.27295455 C15.1059524,8.07681818 15.5238095,9.14454545 15.5238095,10.2818182 L15.5238095,17.2363636 L7.47619048,17.2363636 Z"></path>
            </g>
        </g>
    </g>
</svg>