<svg width="12" height="12" viewBox="0 0 12 12" fill="none" xmlns="http://www.w3.org/2000/svg">
<path d="M10.2422 3.02344H9.91406V1.75781C9.91406 0.788555 9.12551 0 8.15625 0H3.84375C2.87449 0 2.08594 0.788555 2.08594 1.75781V3.02344H1.75781C0.788555 3.02344 0 3.81199 0 4.78125V7.59375C0 8.56301 0.788555 9.35156 1.75781 9.35156H2.08594V10.9453C2.08594 11.5269 2.55907 12 3.14062 12H8.85938C9.44093 12 9.91406 11.5269 9.91406 10.9453V9.35156H10.2422C11.2114 9.35156 12 8.56301 12 7.59375V4.78125C12 3.81199 11.2114 3.02344 10.2422 3.02344ZM2.78906 1.75781C2.78906 1.17626 3.2622 0.703125 3.84375 0.703125H8.15625C8.7378 0.703125 9.21094 1.17626 9.21094 1.75781V3.02344H2.78906V1.75781ZM9.21094 10.9453C9.21094 11.1392 9.05323 11.2969 8.85938 11.2969H3.14062C2.94677 11.2969 2.78906 11.1392 2.78906 10.9453V7.47656H9.21094V10.9453ZM11.2969 7.59375C11.2969 8.1753 10.8237 8.64844 10.2422 8.64844H9.91406V7.47656H10.125C10.3192 7.47656 10.4766 7.31916 10.4766 7.125C10.4766 6.93084 10.3192 6.77344 10.125 6.77344H1.875C1.68084 6.77344 1.52344 6.93084 1.52344 7.125C1.52344 7.31916 1.68084 7.47656 1.875 7.47656H2.08594V8.64844H1.75781C1.17626 8.64844 0.703125 8.1753 0.703125 7.59375V4.78125C0.703125 4.1997 1.17626 3.72656 1.75781 3.72656H10.2422C10.8237 3.72656 11.2969 4.1997 11.2969 4.78125V7.59375Z" fill="white"/>
<path d="M6.9375 8.27344H5.0625C4.86834 8.27344 4.71094 8.43084 4.71094 8.625C4.71094 8.81916 4.86834 8.97656 5.0625 8.97656H6.9375C7.13166 8.97656 7.28906 8.81916 7.28906 8.625C7.28906 8.43084 7.13166 8.27344 6.9375 8.27344Z" fill="white"/>
<path d="M6.9375 9.77344H5.0625C4.86834 9.77344 4.71094 9.93084 4.71094 10.125C4.71094 10.3192 4.86834 10.4766 5.0625 10.4766H6.9375C7.13166 10.4766 7.28906 10.3192 7.28906 10.125C7.28906 9.93084 7.13166 9.77344 6.9375 9.77344Z" fill="white"/>
<path d="M3 4.52344H1.875C1.68084 4.52344 1.52344 4.68084 1.52344 4.875C1.52344 5.06916 1.68084 5.22656 1.875 5.22656H3C3.19416 5.22656 3.35156 5.06916 3.35156 4.875C3.35156 4.68084 3.19416 4.52344 3 4.52344Z" fill="white"/>
</svg>
