<svg xmlns="http://www.w3.org/2000/svg" width="24" height="24" viewBox="0 0 24 24">
    <g fill="none" fill-rule="evenodd">
        <g>
            <g>
                <g>
                    <g>
                        <g>
                            <path d="M0 0L24 0 24 24 0 24z" transform="translate(-818 -646) translate(444 467) translate(40 117) translate(0 50) translate(334 12)"/>
                            <path fill="#3AC5C9" d="M6 19c0 1.1.9 2 2 2h8c1.1 0 2-.9 2-2V9c0-1.1-.9-2-2-2H8c-1.1 0-2 .9-2 2v10zM9 9h6c.55 0 1 .45 1 1v8c0 .55-.45 1-1 1H9c-.55 0-1-.45-1-1v-8c0-.55.45-1 1-1zm6.5-5l-.71-.71c-.18-.18-.44-.29-.7-.29H9.91c-.26 0-.52.11-.7.29L8.5 4H6c-.55 0-1 .45-1 1s.45 1 1 1h12c.55 0 1-.45 1-1s-.45-1-1-1h-2.5z" transform="translate(-818 -646) translate(444 467) translate(40 117) translate(0 50) translate(334 12)"/>
                        </g>
                    </g>
                </g>
            </g>
        </g>
    </g>
</svg>
