<svg xmlns="http://www.w3.org/2000/svg" width="16" height="16" viewBox="0 0 16 16">
    <g fill="none" fill-rule="evenodd">
        <g>
            <g>
                <g>
                    <g>
                        <g>
                            <path d="M0 0L16 0 16 16 0 16z" transform="translate(-1020 -334) translate(280 317) translate(684 16) translate(56 1)"/>
                        </g>
                        <g fill="#52C41A">
                            <path d="M11.11 0c.486 0 .88.394.88.88v3.886c-.282-.123-.577-.217-.88-.278V3.52H1.43V6.6c0 .213.152.395.36.433l.08.007h4.326c-.123.283-.217.578-.278.88H1.43c-.486 0-.88-.394-.88-.88V.88C.55.394.944 0 1.43 0h9.68zm-.44.88h-8.8c-.213 0-.395.152-.433.36l-.007.08v.44h9.68v-.44c0-.243-.197-.44-.44-.44z" transform="translate(-1020 -334) translate(280 317) translate(684 16) translate(56 1) translate(.667 2)"/>
                            <path d="M10.23 4.4c2.43 0 4.4 1.97 4.4 4.4 0 2.43-1.97 4.4-4.4 4.4-2.43 0-4.4-1.97-4.4-4.4 0-2.43 1.97-4.4 4.4-4.4zm1.951 2.094L9.508 9.166 8.452 8.108 7.389 9.17l2.124 2.125 1.062-1.062-.004-.005 2.671-2.671-1.061-1.062z" transform="translate(-1020 -334) translate(280 317) translate(684 16) translate(56 1) translate(.667 2)"/>
                        </g>
                    </g>
                </g>
            </g>
        </g>
    </g>
</svg>
