<svg width="16" height="16" viewBox="0 0 16 16" fill="none" xmlns="http://www.w3.org/2000/svg">
<g clip-path="url(#clip0)">
<path d="M15.7867 5.2546L8.28667 0.0879297C8.11333 -0.0254037 7.88667 -0.0254037 7.71333 0.0879297L0.213333 5.2546C0.08 5.34793 0 5.50126 0 5.66793V15.3346C0 15.7013 0.3 16.0013 0.666667 16.0013H3.33333V8.50127C3.33333 8.22593 3.55867 8.00127 3.83333 8.00127H12.1667C12.442 8.00127 12.6667 8.22593 12.6667 8.50127V16.0013H15.3333C15.7 16.0013 16 15.7013 16 15.3346V5.66793C16 5.50126 15.92 5.34793 15.7867 5.2546Z" fill="#AEAFAF"/>
<path d="M4.33337 11.667H11.6667V13.3337H4.33337V11.667Z" fill="#AEAFAF"/>
<path d="M4.33337 14.333H11.6667V15.9997H4.33337V14.333Z" fill="#AEAFAF"/>
<path d="M4.33337 9H11.6667V10.6667H4.33337V9Z" fill="#AEAFAF"/>
</g>
<defs>
<clipPath id="clip0">
<rect width="16" height="16" fill="white"/>
</clipPath>
</defs>
</svg>
