<svg width="16" height="16" viewBox="0 0 16 16" fill="none" xmlns="http://www.w3.org/2000/svg">
<path d="M11.6666 16C9.27726 16 7.33325 14.056 7.33325 11.6667C7.33325 9.27732 9.27726 7.33331 11.6666 7.33331C14.0559 7.33331 15.9999 9.27732 15.9999 11.6667C15.9999 14.056 14.0559 16 11.6666 16ZM13.5386 10.4987L12.0386 8.83198C11.9433 8.72665 11.8086 8.66665 11.6666 8.66665C11.5246 8.66665 11.3899 8.72665 11.2946 8.83198L9.79459 10.4987C9.50592 10.82 9.73459 11.3333 10.1666 11.3333H10.9999V14C10.9999 14.368 11.2979 14.6667 11.6666 14.6667C12.0353 14.6667 12.3333 14.368 12.3333 14V11.3333H13.1666C13.5986 11.3333 13.8273 10.82 13.5386 10.4987Z" fill="#AEAFAF"/>
<path d="M6.66667 0L13.3333 2.66667L6.66667 5.33333L0 2.66667L6.66667 0Z" fill="#AEAFAF"/>
<path d="M6 6.50254L0 4.10254V10.6665C0 10.8065 0.0866667 10.9305 0.218 10.9792L6 13.1092V6.50254Z" fill="#AEAFAF"/>
<path d="M11.6666 5.99988C12.2466 5.99988 12.8059 6.08854 13.3333 6.25054V4.10254L7.33325 6.50254V8.02255C8.37325 6.78788 9.92925 5.99988 11.6666 5.99988Z" fill="#AEAFAF"/>
</svg>
