<svg xmlns="http://www.w3.org/2000/svg" width="16" height="16" viewBox="0 0 16 16">
    <g fill="none" fill-rule="evenodd">
        <g>
            <g>
                <g>
                    <g>
                        <g>
                            <path d="M0 0L16 0 16 16 0 16z" transform="translate(-155.000000, -626.000000) translate(0.000000, 426.000000) translate(16.000000, 170.000000) translate(0.000000, 22.000000) translate(139.000000, 8.000000)"/>
                            <path fill="#B0B9B9" d="M12.667 2.667H12V2c0-.367-.3-.667-.667-.667-.366 0-.666.3-.666.667v.667H5.333V2c0-.367-.3-.667-.666-.667C4.3 1.333 4 1.633 4 2v.667h-.667c-.74 0-1.326.6-1.326 1.333L2 13.333c0 .734.593 1.334 1.333 1.334h9.334c.733 0 1.333-.6 1.333-1.334V4c0-.733-.6-1.333-1.333-1.333zm0 10c0 .366-.3.666-.667.666H4c-.367 0-.667-.3-.667-.666V6h9.334v6.667zm-8-5.334H6v1.334H4.667V7.333zm2.666 0h1.334v1.334H7.333V7.333zm2.667 0h1.333v1.334H10V7.333z" transform="translate(-155.000000, -626.000000) translate(0.000000, 426.000000) translate(16.000000, 170.000000) translate(0.000000, 22.000000) translate(139.000000, 8.000000)"/>
                        </g>
                    </g>
                </g>
            </g>
        </g>
    </g>
</svg>
