<svg width="12" height="12" viewBox="0 0 12 12" fill="none" xmlns="http://www.w3.org/2000/svg">
<path d="M10.4141 10.4141H7.875V11H11V7.875H10.4141V10.4141Z" fill="white" stroke="white" stroke-width="0.3"/>
<path d="M1.58594 1.58594H4.125V1H1V4.125H1.58594V1.58594Z" fill="white" stroke="white" stroke-width="0.3"/>
<path d="M7.875 1V1.58594H10.4141V4.125H11V1H7.875Z" fill="white" stroke="white" stroke-width="0.3"/>
<path d="M1.58594 7.875H1V11H4.125V10.4141H1.58594V7.875Z" fill="white" stroke="white" stroke-width="0.3"/>
<path d="M3.0898 3.08984V5.1132H2.328V5.69914H9.67191V5.1132H8.91011V3.08984H3.0898ZM3.67574 3.67578H8.32418V5.1132H3.67574V3.67578Z" fill="white" stroke="white" stroke-width="0.3"/>
<path d="M3.08984 6.7666V8.91031H8.91016V6.7666H8.32422V8.32438H3.67578V6.7666H3.08984Z" fill="white" stroke="white" stroke-width="0.3"/>
</svg>
