<svg width="16" height="16" viewBox="0 0 16 16" fill="none" xmlns="http://www.w3.org/2000/svg">
<path d="M11.6667 7.33301C9.27738 7.33301 7.33337 9.27701 7.33337 11.6664C7.33337 14.0557 9.27738 15.9997 11.6667 15.9997C14.0561 15.9997 16.0001 14.0557 16.0001 11.6664C16.0001 9.27701 14.0561 7.33301 11.6667 7.33301ZM13.5387 12.8344L12.0387 14.501C11.9434 14.6064 11.8087 14.6664 11.6667 14.6664C11.5247 14.6664 11.39 14.6064 11.2947 14.501L9.79471 12.8344C9.50605 12.513 9.73471 11.9997 10.1667 11.9997H11V9.33301C11 8.96501 11.298 8.66634 11.6667 8.66634C12.0354 8.66634 12.3334 8.96501 12.3334 9.33301V11.9997H13.1667C13.5987 11.9997 13.8274 12.513 13.5387 12.8344Z" fill="#AEAFAF"/>
<path d="M6.66667 0L13.3333 2.66667L6.66667 5.33333L0 2.66667L6.66667 0Z" fill="#AEAFAF"/>
<path d="M6 6.50254L0 4.10254V10.6665C0 10.8065 0.0866667 10.9305 0.218 10.9792L6 13.1092V6.50254Z" fill="#AEAFAF"/>
<path d="M11.6667 5.99988C12.2467 5.99988 12.806 6.08854 13.3334 6.25054V4.10254L7.33337 6.50254V8.02255C8.37337 6.78788 9.92937 5.99988 11.6667 5.99988Z" fill="#AEAFAF"/>
</svg>
