<svg width="12" height="12" viewBox="0 0 12 12" fill="none" xmlns="http://www.w3.org/2000/svg">
<path d="M8.35002 0.839657H10.5654L5.50057 5.90698C5.33656 6.07099 5.33656 6.33782 5.50057 6.50184C5.58136 6.58262 5.68907 6.62424 5.79678 6.62424C5.90449 6.62424 6.0122 6.58262 6.09299 6.50184L11.1603 1.43452V3.64994C11.1603 3.8825 11.3488 4.07099 11.5789 4.07099C11.8115 4.07099 12 3.8825 12 3.64994V0.421053C12 0.188495 11.8115 0 11.5789 0H8.35002C8.11747 0 7.92897 0.188495 7.92897 0.421053C7.93142 0.651163 8.11747 0.839657 8.35002 0.839657Z" fill="white"/>
<path d="M2.51897 12H9.47858C10.869 12 11.9976 10.869 11.9976 9.48103V6.20318C11.9976 5.97062 11.8091 5.78458 11.5765 5.78458C11.3439 5.78458 11.1579 5.97307 11.1579 6.20318V9.47858C11.1579 10.4039 10.4039 11.1579 9.47858 11.1579H2.51897C1.59364 11.1579 0.839657 10.4039 0.839657 9.47858V3.95104V2.52142C0.839657 1.59608 1.59364 0.842105 2.51897 0.842105H5.76744C6 0.842105 6.18605 0.653611 6.18605 0.421053C6.18605 0.188495 5.99755 0 5.76744 0H2.51897C1.12852 0 0 1.13097 0 2.51897V3.94859V9.47858C0 10.869 1.13097 12 2.51897 12Z" fill="white"/>
</svg>
