<svg width="18" height="18" viewBox="0 0 18 18" fill="none" xmlns="http://www.w3.org/2000/svg">
<g clip-path="url(#clip0)">
<path d="M6.53926 0H1.3714C0.615702 0 0.000976562 0.614725 0.000976562 1.37042V6.53828C0.000976562 7.29398 0.615702 7.9087 1.3714 7.9087H6.53926C7.29495 7.9087 7.90968 7.29398 7.90968 6.53828V1.37042C7.90955 0.614725 7.29495 0 6.53926 0Z" fill="#AEAFAF"/>
<path d="M16.6296 0H11.4617C10.706 0 10.0913 0.614725 10.0913 1.37042V6.53828C10.0913 7.29398 10.706 7.9087 11.4617 7.9087H16.6296C17.3853 7.9087 18 7.29398 18 6.53828V1.37042C18 0.614725 17.3853 0 16.6296 0Z" fill="#AEAFAF"/>
<path d="M6.53828 10.0908H1.37042C0.614725 10.0908 0 10.7055 0 11.4612V16.629C0 17.3847 0.614725 17.9994 1.37042 17.9994H6.53828C7.29398 17.9994 7.9087 17.3847 7.9087 16.629V11.4612C7.90858 10.7055 7.29398 10.0908 6.53828 10.0908Z" fill="#AEAFAF"/>
<path d="M16.6296 10.0908H11.4617C10.706 10.0908 10.0913 10.7055 10.0913 11.4612V16.6291C10.0913 17.3848 10.706 17.9995 11.4617 17.9995H16.6296C17.3853 17.9995 18 17.3848 18 16.6291V11.4612C18 10.7055 17.3853 10.0908 16.6296 10.0908Z" fill="#AEAFAF"/>
</g>
<defs>
<clipPath id="clip0">
<rect width="18" height="18" fill="white"/>
</clipPath>
</defs>
</svg>
