<svg xmlns="http://www.w3.org/2000/svg" width="88" height="88" viewBox="0 0 88 88">
    <defs>
        <filter id="bblcod4zza">
            <feColorMatrix in="SourceGraphic" values="0 0 0 0 0.858824 0 0 0 0 0.917647 0 0 0 0 0.921569 0 0 0 1.000000 0"/>
        </filter>
    </defs>
    <g fill="none" fill-rule="evenodd">
        <g>
            <g>
                <g>
                    <g filter="url(#bblcod4zza)" transform="translate(-676 -935) translate(312 401) translate(56 534) translate(308)">
                        <g fill="#000" fill-rule="nonzero">
                            <path d="M8.61 79.2h61.98c4.753-.005 8.605-3.854 8.61-8.602V14.763c-.005-4.749-3.857-8.598-8.61-8.603h-2.83v5.412c0 3.884-3.152 7.033-7.04 7.033s-7.04-3.149-7.04-7.033V6.16H25.52v5.412c0 3.884-3.152 7.033-7.04 7.033s-7.04-3.149-7.04-7.033V6.16H8.61C3.858 6.165.006 10.014 0 14.763v55.835c.005 4.748 3.857 8.597 8.61 8.602zm-3.33-8.61V24.64h68.64v34.235c-3.81.758-7.712.93-11.574.508-.813-.097-1.626.184-2.205.763-.579.579-.86 1.391-.762 2.204.419 3.86.247 7.762-.51 11.57H8.611c-1.839-.002-3.329-1.492-3.331-3.33zm65.165 3.33H63.36c4.354-2.359 7.987-5.689 10.56-9.68v6.495c-.002 1.758-1.557 3.183-3.475 3.185z" transform="translate(4 4)"/>
                            <path d="M57.2 3.505v7.95c0 1.936 1.576 3.505 3.52 3.505s3.52-1.57 3.52-3.505v-7.95C64.24 1.569 62.664 0 60.72 0S57.2 1.57 57.2 3.505zM14.96 3.505v7.95c0 1.936 1.576 3.505 3.52 3.505S22 13.39 22 11.455v-7.95C22 1.569 20.424 0 18.48 0s-3.52 1.57-3.52 3.505z" transform="translate(4 4)"/>
                        </g>
                    </g>
                </g>
            </g>
        </g>
    </g>
</svg>
