<?xml version="1.0" encoding="UTF-8"?>
<svg width="21px" height="23px" viewBox="0 0 21 23" version="1.1" xmlns="http://www.w3.org/2000/svg" xmlns:xlink="http://www.w3.org/1999/xlink">
    <title>Combined Shape</title>
    <g id="Symbols" stroke="none" stroke-width="1" fill="none" fill-rule="evenodd">
        <g id="Icon-/-Stylist-/-Default-Full" transform="translate(-1.000000, -1.000000)" fill="#019C9F">
            <path d="M19.2089629,16.6420277 C19.3268021,16.6420277 19.423216,16.7384473 19.423216,16.8562934 L19.423216,16.8562934 L19.423216,18.9989509 L21.5657469,18.9989509 C21.6835861,18.9989509 21.78,19.0953705 21.78,19.2132166 L21.78,19.2132166 L21.78,20.4988111 C21.78,20.6166572 21.6835861,20.7130768 21.5657469,20.7130768 L21.5657469,20.7130768 L19.423216,20.7130768 L19.423216,22.8557343 C19.423216,22.9735804 19.3268021,23.07 19.2089629,23.07 L19.2089629,23.07 L17.9234443,23.07 C17.8056051,23.07 17.7091912,22.9735804 17.7091912,22.8557343 L17.7091912,22.8557343 L17.7091912,20.7130768 L15.5666603,20.7130768 C15.4488211,20.7130768 15.3524072,20.6166572 15.3524072,20.4988111 L15.3524072,20.4988111 L15.3524072,19.2132166 C15.3524072,19.0953705 15.4488211,18.9989509 15.5666603,18.9989509 L15.5666603,18.9989509 L17.7091912,18.9989509 L17.7091912,16.8562934 C17.7091912,16.7384473 17.8056051,16.6420277 17.9234443,16.6420277 L17.9234443,16.6420277 Z M14.4712914,5.60734191 C17.3904898,5.65287339 19.7445956,8.03390146 19.7445956,10.9639855 C19.7445956,13.9235311 17.344961,16.3206291 14.3882683,16.3206291 C12.7545885,16.3206291 11.2226789,16.9553913 10.0683903,18.109748 C8.96230874,19.2132166 8.33294028,20.6675454 8.28205517,22.220972 C8.27937701,22.3361398 8.18296311,22.4272028 8.06780208,22.4272028 L8.06780208,22.4272028 L6.56803043,22.4272028 C6.51026664,22.4272028 6.4549428,22.4039126 6.41460497,22.3625639 C6.37426714,22.3212152 6.35233324,22.2653295 6.35371029,22.2075804 C6.40734061,20.1452726 7.23757134,18.2115243 8.70520503,16.7464822 C9.37533515,16.0752965 10.1586613,15.5276611 11.0191384,15.1287759 C9.80860845,14.1458318 9.03194099,12.6459716 9.03194099,10.9639855 C9.03194099,7.99640495 11.503886,5.56181044 14.4712914,5.60734191 Z M1.21438128,17.8231676 C1.15661749,17.8231676 1.10129365,17.7998775 1.06095582,17.7585288 C1.02061799,17.71718 0.99868409,17.6612944 1.00006114,17.6035452 C1.05369146,15.5385591 1.88392219,13.6048108 3.35155588,12.1397688 C4.03180945,11.459475 4.8165114,10.9157757 5.66816744,10.5220624 C4.4549593,9.53911831 3.68097001,8.0392581 3.68097001,6.35727202 C3.68097001,3.38969147 6.15559323,0.955096962 9.12299856,1.00062843 C11.1798282,1.03276829 12.9581289,2.22194317 13.8285321,3.94410408 C13.8954862,4.07802017 13.809785,4.23871948 13.6598078,4.25478941 C13.3027884,4.29217585 12.952292,4.35957002 12.6128714,4.45241894 C11.413501,4.79800055 10.3847141,5.43312378 9.52677521,6.35762512 C8.64941943,7.30304978 8.05953939,8.42336337 7.75713509,9.71856587 C7.68214651,10.1229925 7.64197406,10.5381323 7.64197406,10.9639855 C7.64197406,11.2023561 7.65536487,11.4380485 7.67946835,11.6710625 C7.73772718,12.2389518 7.87308439,12.7843173 8.08553997,13.3071588 C8.29799554,13.8300004 8.62954089,14.4336567 9.08017601,15.1181276 C8.4385938,15.6361384 7.97169124,16.0413525 7.67946835,16.3337699 C7.38724545,16.6261873 7.02751106,17.1226532 6.60026516,17.8231676 L6.60026516,17.8231676 Z M14.3534522,7.53573361 C13.434842,7.54644689 12.5751515,7.91337698 11.9323922,8.57224414 C11.3190928,9.20164976 10.9682533,10.0506778 10.9602188,10.9291673 C10.9487901,11.8508242 11.3111026,12.7378175 11.9645302,13.3878667 C12.6126458,14.0360206 13.4723363,14.3922374 14.3882683,14.3922374 C15.3042003,14.3922374 16.1638908,14.0360206 16.8120064,13.3878667 C17.460122,12.7397128 17.8163178,11.8799716 17.818996,10.9639855 C17.818996,10.0372862 17.4547657,9.16683158 16.7905811,8.51599938 C16.1424655,7.88123712 15.2613497,7.52769864 14.3534522,7.53573361 Z" id="Combined-Shape"></path>
        </g>
    </g>
</svg>